<svg width="168" height="32" viewBox="0 0 168 32" fill="none" xmlns="http://www.w3.org/2000/svg">
<path d="M28.8413 6.45367C28.3749 5.82725 27.8645 5.23688 27.3138 4.68613C24.4186 1.7909 20.4181 0 16.0003 0C11.5823 0 7.58199 1.79077 4.68663 4.68613C1.79075 7.58136 0 11.5818 0 16.0003C0 21.2589 2.53714 25.9251 6.45419 28.8408C9.11894 30.8255 12.4224 31.9999 16.0003 31.9999H25.7522C29.2027 31.9999 31.9999 29.2026 31.9999 25.7522V16.0003C31.9998 12.422 30.8253 9.11841 28.8413 6.45367ZM25.1059 14.8985L14.6586 25.3457C12.7723 27.2327 9.71386 27.2327 7.82763 25.3457C5.9414 23.4595 5.9414 20.4011 7.82763 18.5149L18.2749 8.06757C19.2177 7.12478 20.4542 6.65281 21.6907 6.65281C22.9266 6.65281 24.1623 7.12491 25.1059 8.06757C26.9922 9.95381 26.9922 13.0123 25.1059 14.8985Z" fill="#2785EF"/>
<path d="M38.9423 27.3425V4.5791H47.3972C54.649 4.54658 58.909 8.67652 58.909 15.9283C58.909 23.1475 54.714 27.4075 47.4948 27.3425H38.9423ZM47.4948 23.5052C51.8848 23.5052 54.3888 20.7086 54.3888 15.9283C54.3888 11.148 51.8198 8.41637 47.3972 8.41637H43.3323V23.5052H47.4948ZM60.3605 15.0502C60.3605 12.3512 61.8239 10.8878 64.6205 10.8878H69.6282V14.3999H64.523V27.3425H60.3605V15.0502ZM78.5188 27.8627C73.2508 27.8627 69.9013 24.3832 69.9013 19.1151C69.9013 13.847 73.2508 10.3675 78.5188 10.3675C83.7218 10.3675 87.0717 13.847 87.0717 19.1151C87.0717 24.3832 83.7219 27.8627 78.5188 27.8627ZM78.5188 24.3182C81.1204 24.3182 82.8439 22.2695 82.8439 19.1151C82.8439 15.9608 81.1204 13.8796 78.5188 13.8796C75.8848 13.8796 74.1613 15.9608 74.1613 19.1151C74.1613 22.2695 75.8848 24.3182 78.5188 24.3182ZM88.3601 32V10.8878H92.1332V13.3592C93.3681 11.4406 95.3193 10.3675 97.7906 10.3675C102.148 10.3675 105.205 13.717 105.205 19.1151C105.205 24.5458 102.148 27.8627 97.7906 27.8627C95.5477 27.8627 93.7257 26.9847 92.523 25.3913V32H88.3601ZM96.7504 24.3507C99.3196 24.3507 100.978 22.2695 100.978 19.1151C100.978 15.9608 99.3196 13.9121 96.7504 13.9121C94.1488 13.9121 92.3926 15.9608 92.3926 19.1151C92.3926 22.2695 94.1488 24.3507 96.7504 24.3507ZM117.732 17.6843C117.732 15.1478 116.724 13.9771 114.708 13.9771C112.4 13.9771 110.774 15.5705 110.774 19.1476V27.3425H106.611V10.8878H110.383V13.2942C111.424 11.3756 113.245 10.3675 115.716 10.3675C119.586 10.3675 121.895 12.8064 121.895 16.9038V27.3425H117.732V17.6843ZM131.816 27.8627C126.549 27.8627 123.199 24.3832 123.199 19.1151C123.199 13.847 126.549 10.3675 131.816 10.3675C137.019 10.3675 140.369 13.847 140.369 19.1151C140.369 24.3832 137.019 27.8627 131.816 27.8627ZM131.816 24.3182C134.418 24.3182 136.142 22.2695 136.142 19.1151C136.142 15.9608 134.418 13.8796 131.816 13.8796C129.182 13.8796 127.46 15.9608 127.46 19.1151C127.46 22.2695 129.182 24.3182 131.816 24.3182ZM149.288 27.3425C145.386 27.3425 143.24 25.1962 143.24 21.5866V14.3999H140.249V10.8878H142.167C143.045 10.8878 143.501 10.4325 143.501 9.58704V4.51746H147.305V10.8878H150.752V14.3999H147.403V22.8548C147.403 23.5377 147.728 23.8304 148.411 23.8304H151.175V27.3425H149.288ZM159.937 27.8627C154.768 27.8627 151.482 24.4157 151.482 19.1151C151.482 13.8796 154.734 10.3675 159.937 10.3675C165.563 10.3675 168.621 14.4649 167.775 20.2208H155.645C155.872 22.9524 157.434 24.5133 159.937 24.5133C161.986 24.5133 163.223 23.4402 163.548 22.367H167.677C167.027 25.5539 164.165 27.8627 159.937 27.8627ZM155.743 17.3916H163.743C163.71 15.1478 162.279 13.6194 159.84 13.6194C157.661 13.6194 156.133 14.9202 155.743 17.3916Z" fill="#1E1E1E"/>
</svg>
