<svg width="16" height="16" viewBox="0 0 16 16" fill="none" xmlns="http://www.w3.org/2000/svg">
<path d="M4.72026 0H11.2797C13.8867 0 16 2.11334 16 4.72026V11.2797C16 13.8867 13.8867 16 11.2797 16H4.72026C2.11334 16 0 13.8867 0 11.2797V4.72026C0 2.11334 2.11334 0 4.72026 0Z" fill="#2785EF"/>
<path d="M11.368 5.4966C11.2457 5.33233 11.1119 5.17751 10.9674 5.03307C10.2081 4.27381 9.15909 3.8042 8.00055 3.8042C6.84199 3.8042 5.79297 4.27381 5.03369 5.03307C4.2743 5.79232 3.80469 6.84137 3.80469 8.00006C3.80469 9.37906 4.47001 10.6027 5.49722 11.3673C6.19602 11.8878 7.06232 12.1958 8.00055 12.1958H10.5579C11.4627 12.1958 12.1963 11.4622 12.1963 10.5574V8.00006C12.1963 7.0617 11.8883 6.1954 11.368 5.4966ZM10.3884 7.71113L7.64876 10.4508C7.15411 10.9456 6.35208 10.9456 5.85742 10.4508C5.36277 9.95611 5.36277 9.15412 5.85742 8.65946L8.59711 5.91982C8.84435 5.67261 9.16863 5.54881 9.49286 5.54881C9.81694 5.54881 10.141 5.67261 10.3884 5.91982C10.8831 6.41445 10.8831 7.2165 10.3884 7.71113Z" fill="white"/>
</svg>
