<svg width="31" height="20" viewBox="0 0 31 20" fill="none" xmlns="http://www.w3.org/2000/svg">
<path d="M0 4C0 1.79086 1.79086 0 4 0H27C29.2091 0 31 1.79086 31 4V20H0V4Z" fill="#2785EF"/>
<path d="M9.40869 15V6.24H10.4887V8.4V9.66H10.7167L10.4887 9.912C10.4887 9.392 10.6447 8.992 10.9567 8.712C11.2687 8.424 11.7007 8.28 12.2527 8.28C12.9167 8.28 13.4447 8.484 13.8367 8.892C14.2287 9.3 14.4247 9.856 14.4247 10.56V15H13.3447V10.68C13.3447 10.208 13.2167 9.844 12.9607 9.588C12.7127 9.324 12.3727 9.192 11.9407 9.192C11.4927 9.192 11.1367 9.332 10.8727 9.612C10.6167 9.892 10.4887 10.288 10.4887 10.8V15H9.40869ZM16.58 15V14.016H18.956V7.14L16.58 8.916V7.716L18.56 6.24H20.036V14.016H21.98V15H16.58Z" fill="white"/>
</svg>
